<svg width="32" height="27" viewBox="0 0 32 27" fill="none" xmlns="http://www.w3.org/2000/svg">
<g filter="url(#filter0_d_2828_156)">
<path d="M3.33331 0.333336H28.6666C29.7866 0.333336 30.6666 1.17374 30.6666 2.27273V17.1414C30.6666 18.2404 29.7866 19.0808 28.6666 19.0808H3.33331C2.19998 19.0808 1.33331 18.2404 1.33331 17.1414V2.27273C1.33331 1.17374 2.19998 0.333336 3.33331 0.333336ZM12.9466 5.50505V13.9091L20.56 9.64243L12.9466 5.50505ZM23 21.6667H8.86665C8.46665 21.6667 8.19998 21.4081 8.19998 21.0202C8.19998 20.6323 8.46665 20.3737 8.86665 20.3737H23.1333C23.5333 20.3737 23.8 20.6323 23.8 21.0202C23.8 21.4081 23.4 21.6667 23 21.6667Z" fill="#77ADD9"/>
</g>
<defs>
<filter id="filter0_d_2828_156" x="-2.66669" y="0.333336" width="37.3333" height="29.3333" filterUnits="userSpaceOnUse" color-interpolation-filters="sRGB">
<feFlood flood-opacity="0" result="BackgroundImageFix"/>
<feColorMatrix in="SourceAlpha" type="matrix" values="0 0 0 0 0 0 0 0 0 0 0 0 0 0 0 0 0 0 127 0" result="hardAlpha"/>
<feOffset dy="4"/>
<feGaussianBlur stdDeviation="2"/>
<feComposite in2="hardAlpha" operator="out"/>
<feColorMatrix type="matrix" values="0 0 0 0 0 0 0 0 0 0 0 0 0 0 0 0 0 0 0.25 0"/>
<feBlend mode="normal" in2="BackgroundImageFix" result="effect1_dropShadow_2828_156"/>
<feBlend mode="normal" in="SourceGraphic" in2="effect1_dropShadow_2828_156" result="shape"/>
</filter>
</defs>
</svg>
