<svg width="24" height="22" viewBox="0 0 24 22" fill="none" xmlns="http://www.w3.org/2000/svg">
<path d="M24 12.1852C24 13.5007 22.932 14.5556 21.6 14.5556H2.4C1.08 14.5556 0 13.5007 0 12.1852C0 10.8696 1.08 9.81482 2.4 9.81482H13.2L16.2 12.1852L19.2 9.81482H21.6C22.932 9.81482 24 10.8815 24 12.1852ZM12 0.333336C1.2 0.333336 1.2 7.44445 1.2 7.44445H22.8C22.8 7.44445 22.8 0.333336 12 0.333336ZM1.2 18.1111C1.2 20.0785 2.808 21.6667 4.8 21.6667H19.2C21.192 21.6667 22.8 20.0785 22.8 18.1111V16.9259H1.2V18.1111Z" fill="#EB6842"/>
</svg>
