<svg width="22" height="22" viewBox="0 0 22 22" fill="none" xmlns="http://www.w3.org/2000/svg">
<path d="M19.0333 12.0667V12.5667H19.5333H21.1666V18.4667C21.1666 19.3639 20.4305 20.1 19.5333 20.1H19.0333V20.6C19.0333 20.9105 18.7772 21.1667 18.4666 21.1667H3.53331C3.22279 21.1667 2.96665 20.9105 2.96665 20.6V20.1H2.46665C1.56946 20.1 0.833313 19.3639 0.833313 18.4667V12.5667H3.53331H4.03331V12.0667V11.2667C4.03331 10.208 4.87757 9.36667 5.92265 9.36667C6.21918 9.36667 6.50752 9.43433 6.77153 9.56208L6.7715 9.56216L6.77978 9.56598C7.02076 9.6772 7.20304 9.79819 7.33983 9.96378L7.34686 9.97229L7.35426 9.98048L8.84759 11.6338L8.84757 11.6338L8.85177 11.6384C9.14036 11.9501 9.45489 12.2301 9.80658 12.4763L9.9357 12.5667H10.0933H17.4H17.9V12.0667V3.352C17.9 2.58519 17.2815 1.96667 16.5146 1.96667C16.1452 1.96667 15.7947 2.11688 15.5424 2.36911L15.541 2.37053L14.2077 3.71453L14.0092 3.91457L14.0776 4.18794C14.1154 4.33917 14.1373 4.46549 14.1373 4.6C14.1373 4.69013 14.1298 4.77844 14.1155 4.86444L12.2389 2.9878C12.3241 2.9739 12.4124 2.96667 12.504 2.96667C12.6396 2.96667 12.7705 2.98915 12.8988 3.02924L13.1876 3.11948L13.4015 2.90556L14.7349 1.57222C15.207 1.10012 15.848 0.833336 16.5146 0.833336C17.9025 0.833336 19.0333 1.96414 19.0333 3.352V12.0667ZM5.66665 4.03334C6.57288 4.03334 7.29998 4.76785 7.29998 5.66667C7.29998 6.56549 6.57288 7.3 5.66665 7.3C4.75879 7.3 4.03331 6.57453 4.03331 5.66667C4.03331 4.76044 4.76783 4.03334 5.66665 4.03334Z" fill="#66BB6A" stroke="black"/>
</svg>
