<svg width="24" height="22" viewBox="0 0 24 22" fill="none" xmlns="http://www.w3.org/2000/svg">
<path d="M7.63785 0.35115C9.04808 0.149839 10.542 1.67743 10.9722 3.78527C11.4024 5.88127 10.6256 7.75227 9.2154 7.96542C7.81712 8.17858 6.31128 6.65098 5.86909 4.54314C5.4269 2.44715 6.22762 0.576144 7.63785 0.35115ZM16.1829 0.35115C17.6051 0.576144 18.3938 2.44715 17.9755 4.54314C17.5214 6.65098 16.0275 8.17858 14.6173 7.96542C13.1951 7.75227 12.4183 5.88127 12.8605 3.78527C13.2907 1.67743 14.7846 0.149839 16.1829 0.35115ZM1.24402 5.79838C2.60644 5.21813 4.45886 6.27205 5.4269 8.10753C6.33518 9.97853 6.02445 11.9443 4.67398 12.5245C3.32351 13.1048 1.48304 12.0627 0.538901 10.2035C-0.405235 8.34436 -0.0706046 6.36678 1.24402 5.79838ZM22.756 5.79838C24.0706 6.36678 24.4052 8.34436 23.4611 10.2035C22.517 12.0627 20.6765 13.1048 19.326 12.5245C17.9755 11.9443 17.6648 9.97853 18.5731 8.10753C19.5411 6.27205 21.3936 5.21813 22.756 5.79838ZM20.7602 18.5638C20.808 19.677 19.9475 20.9085 18.9197 21.3703C16.7804 22.3414 14.2468 20.3283 11.8685 20.3283C9.49027 20.3283 6.93274 22.4243 4.82934 21.3703C3.63423 20.7901 2.80961 19.2507 2.96497 17.9717C3.18009 16.2073 5.31934 15.26 6.58615 13.9692C8.27126 12.2995 9.46637 9.16144 11.8685 9.16144C14.2588 9.16144 15.5256 12.2522 17.139 13.9692C18.4655 15.4139 20.6765 16.6336 20.7602 18.5638Z" fill="#E91E63"/>
</svg>
