<svg width="20" height="22" viewBox="0 0 20 22" fill="none" xmlns="http://www.w3.org/2000/svg">
<path d="M10 12.5238C8.62482 12.5238 7.30595 11.9887 6.33354 11.0361C5.36113 10.0835 4.81484 8.79158 4.81484 7.44445H6.88891C6.88891 8.25273 7.21669 9.0279 7.80013 9.59944C8.38358 10.171 9.1749 10.4921 10 10.4921C10.8251 10.4921 11.6165 10.171 12.1999 9.59944C12.7834 9.0279 13.1111 8.25273 13.1111 7.44445H15.1852C15.1852 8.79158 14.6389 10.0835 13.6665 11.0361C12.6941 11.9887 11.3752 12.5238 10 12.5238V12.5238ZM10 2.36508C10.8251 2.36508 11.6165 2.68617 12.1999 3.25771C12.7834 3.82925 13.1111 4.60442 13.1111 5.4127H6.88891C6.88891 4.60442 7.21669 3.82925 7.80013 3.25771C8.38358 2.68617 9.1749 2.36508 10 2.36508V2.36508ZM17.2593 5.4127H15.1852C15.1852 4.74567 15.0511 4.08517 14.7905 3.46891C14.5299 2.85265 14.148 2.29271 13.6665 1.82105C13.185 1.34938 12.6134 0.975241 11.9843 0.71998C11.3552 0.464718 10.6809 0.333336 10 0.333336C8.62482 0.333336 7.30595 0.868482 6.33354 1.82105C5.36113 2.77361 4.81484 4.06557 4.81484 5.4127H2.74076C1.58965 5.4127 0.666687 6.31683 0.666687 7.44445V19.6349C0.666687 20.1738 0.885205 20.6906 1.27417 21.0716C1.66313 21.4526 2.19068 21.6667 2.74076 21.6667H17.2593C17.8094 21.6667 18.3369 21.4526 18.7259 21.0716C19.1148 20.6906 19.3334 20.1738 19.3334 19.6349V7.44445C19.3334 6.31683 18.4 5.4127 17.2593 5.4127Z" fill="#8D62F7"/>
</svg>
