<svg width="34" height="24" viewBox="0 0 34 24" fill="none" xmlns="http://www.w3.org/2000/svg">
<path d="M11.9016 23.6008C11.6349 23.6008 11.3849 23.5508 11.1516 23.4508C10.9182 23.3508 10.7016 23.2008 10.5016 23.0008L1.45156 13.9508C1.05156 13.5508 0.851562 13.0674 0.851562 12.5008C0.851562 11.9341 1.05156 11.4508 1.45156 11.0508C1.85156 10.6508 2.32656 10.4508 2.87656 10.4508C3.42656 10.4508 3.90156 10.6508 4.30156 11.0508L11.9016 18.6508L29.7016 0.900781C30.0682 0.500781 30.5266 0.300781 31.0766 0.300781C31.6266 0.300781 32.1016 0.500781 32.5016 0.900781C32.9016 1.30078 33.1016 1.78411 33.1016 2.35078C33.1016 2.91745 32.9016 3.38411 32.5016 3.75078L13.3016 23.0008C13.1016 23.2008 12.8849 23.3508 12.6516 23.4508C12.4182 23.5508 12.1682 23.6008 11.9016 23.6008V23.6008Z" fill="#34C759"/>
</svg>
