<svg width="23" height="22" viewBox="0 0 23 22" fill="none" xmlns="http://www.w3.org/2000/svg">
<path d="M20.4 13.807H2.26667V7.07018H5.66667V9.31579H7.93333V7.07018H14.7333V9.31579H17V7.07018H20.4V13.807ZM20.4 19.4211H2.26667V17.1754H20.4V19.4211ZM7.93333 2.57895H14.7333V4.82456H7.93333V2.57895ZM20.4 4.82456H17V2.57895C17 1.33263 15.9913 0.333336 14.7333 0.333336H7.93333C6.67533 0.333336 5.66667 1.33263 5.66667 2.57895V4.82456H2.26667C1.00867 4.82456 0 5.82386 0 7.07018V19.4211C0 20.6674 1.00867 21.6667 2.26667 21.6667H20.4C21.658 21.6667 22.6667 20.6674 22.6667 19.4211V7.07018C22.6667 5.82386 21.658 4.82456 20.4 4.82456Z" fill="#F44336"/>
</svg>
