<svg width="12" height="12" viewBox="0 0 12 12" fill="none" xmlns="http://www.w3.org/2000/svg">
<path d="M12 6.59259C12 7.25037 11.466 7.77777 10.8 7.77777H1.2C0.54 7.77777 0 7.25037 0 6.59259C0 5.93481 0.54 5.4074 1.2 5.4074H6.6L8.1 6.59259L9.6 5.4074H10.8C11.466 5.4074 12 5.94074 12 6.59259ZM6 0.666664C0.6 0.666664 0.6 4.22222 0.6 4.22222H11.4C11.4 4.22222 11.4 0.666664 6 0.666664ZM0.6 9.55555C0.6 10.5393 1.404 11.3333 2.4 11.3333H9.6C10.596 11.3333 11.4 10.5393 11.4 9.55555V8.96296H0.6V9.55555Z" fill="#EB6842"/>
</svg>
