<svg width="21" height="21" viewBox="0 0 21 21" fill="none" xmlns="http://www.w3.org/2000/svg">
<path d="M15.0758 11.2758C14.9591 11.2758 14.8424 11.2508 14.7258 11.2008C14.6091 11.1508 14.5008 11.0758 14.4008 10.9758L10.0258 6.60078C9.92578 6.50078 9.85078 6.39245 9.80078 6.27578C9.75078 6.15911 9.72578 6.03411 9.72578 5.90078C9.72578 5.76745 9.75078 5.64661 9.80078 5.53828C9.85078 5.42995 9.92578 5.32578 10.0258 5.22578L14.4008 0.850781C14.5008 0.750781 14.6091 0.675781 14.7258 0.625781C14.8424 0.575781 14.9674 0.550781 15.1008 0.550781C15.2341 0.550781 15.3549 0.575781 15.4633 0.625781C15.5716 0.675781 15.6758 0.750781 15.7758 0.850781L20.1508 5.22578C20.2508 5.32578 20.3258 5.42995 20.3758 5.53828C20.4258 5.64661 20.4508 5.77578 20.4508 5.92578C20.4508 6.04245 20.4258 6.15911 20.3758 6.27578C20.3258 6.39245 20.2508 6.50078 20.1508 6.60078L15.7758 10.9758C15.6758 11.0758 15.5716 11.1508 15.4633 11.2008C15.3549 11.2508 15.2258 11.2758 15.0758 11.2758ZM1.05078 9.87578C0.767448 9.87578 0.529948 9.77995 0.338281 9.58828C0.146615 9.39661 0.0507812 9.15911 0.0507812 8.87578V2.72578C0.0507812 2.44245 0.146615 2.20495 0.338281 2.01328C0.529948 1.82161 0.767448 1.72578 1.05078 1.72578H7.20078C7.48411 1.72578 7.72161 1.82161 7.91328 2.01328C8.10495 2.20495 8.20078 2.44245 8.20078 2.72578V8.87578C8.20078 9.15911 8.10495 9.39661 7.91328 9.58828C7.72161 9.77995 7.48411 9.87578 7.20078 9.87578H1.05078ZM12.1258 20.9508C11.8424 20.9508 11.6049 20.8549 11.4133 20.6633C11.2216 20.4716 11.1258 20.2341 11.1258 19.9508V13.8008C11.1258 13.5174 11.2216 13.2799 11.4133 13.0883C11.6049 12.8966 11.8424 12.8008 12.1258 12.8008H18.2758C18.5591 12.8008 18.7966 12.8966 18.9883 13.0883C19.1799 13.2799 19.2758 13.5174 19.2758 13.8008V19.9508C19.2758 20.2341 19.1799 20.4716 18.9883 20.6633C18.7966 20.8549 18.5591 20.9508 18.2758 20.9508H12.1258ZM1.05078 20.9508C0.767448 20.9508 0.529948 20.8549 0.338281 20.6633C0.146615 20.4716 0.0507812 20.2341 0.0507812 19.9508V13.8008C0.0507812 13.5174 0.146615 13.2799 0.338281 13.0883C0.529948 12.8966 0.767448 12.8008 1.05078 12.8008H7.20078C7.48411 12.8008 7.72161 12.8966 7.91328 13.0883C8.10495 13.2799 8.20078 13.5174 8.20078 13.8008V19.9508C8.20078 20.2341 8.10495 20.4716 7.91328 20.6633C7.72161 20.8549 7.48411 20.9508 7.20078 20.9508H1.05078ZM2.05078 7.90078H6.20078V3.70078H2.05078V7.90078ZM15.1758 8.95078L18.1258 5.97578L15.1758 3.00078L12.2008 5.97578L15.1758 8.95078ZM13.1008 18.9508H17.3008V14.8008H13.1008V18.9508ZM2.05078 18.9508H6.20078V14.8008H2.05078V18.9508Z" fill="black"/>
</svg>
