<svg width="14" height="13" viewBox="0 0 14 13" fill="none" xmlns="http://www.w3.org/2000/svg">
<path d="M9.66665 6.33333C9.85553 6.33333 10.0139 6.26944 10.1416 6.14166C10.2694 6.01388 10.3333 5.85555 10.3333 5.66666C10.3333 5.47777 10.2694 5.31944 10.1416 5.19166C10.0139 5.06388 9.85553 4.99999 9.66665 4.99999C9.47776 4.99999 9.31942 5.06388 9.19165 5.19166C9.06387 5.31944 8.99998 5.47777 8.99998 5.66666C8.99998 5.85555 9.06387 6.01388 9.19165 6.14166C9.31942 6.26944 9.47776 6.33333 9.66665 6.33333ZM4.83331 4.66666H7.16665C7.31109 4.66666 7.43053 4.61944 7.52498 4.52499C7.61942 4.43055 7.66665 4.31111 7.66665 4.16666C7.66665 4.02222 7.61942 3.90277 7.52498 3.80833C7.43053 3.71388 7.31109 3.66666 7.16665 3.66666H4.83331C4.68887 3.66666 4.56942 3.71388 4.47498 3.80833C4.38053 3.90277 4.33331 4.02222 4.33331 4.16666C4.33331 4.31111 4.38053 4.43055 4.47498 4.52499C4.56942 4.61944 4.68887 4.66666 4.83331 4.66666ZM2.83331 13C2.59998 13 2.38053 12.9222 2.17498 12.7667C1.96942 12.6111 1.83331 12.4222 1.76665 12.2C1.48887 11.2444 1.25831 10.4194 1.07498 9.72499C0.891646 9.03055 0.744424 8.42222 0.633313 7.89999C0.522202 7.37777 0.444424 6.91388 0.39998 6.50833C0.355535 6.10277 0.333313 5.71111 0.333313 5.33333C0.333313 4.31111 0.688868 3.44444 1.39998 2.73333C2.11109 2.02222 2.97776 1.66666 3.99998 1.66666H7.33331C7.63331 1.26666 8.01387 0.944439 8.47498 0.699995C8.93609 0.45555 9.44442 0.333328 9.99998 0.333328C10.2778 0.333328 10.5139 0.43055 10.7083 0.624995C10.9028 0.819439 11 1.05555 11 1.33333C11 1.39999 10.9916 1.46666 10.975 1.53333C10.9583 1.59999 10.9389 1.66111 10.9166 1.71666C10.8722 1.83888 10.8305 1.96111 10.7916 2.08333C10.7528 2.20555 10.7222 2.33888 10.7 2.48333L12.2166 3.99999H13.1666C13.3111 3.99999 13.4305 4.04722 13.525 4.14166C13.6194 4.23611 13.6666 4.35555 13.6666 4.49999V8.28333C13.6666 8.39444 13.6361 8.49444 13.575 8.58333C13.5139 8.67222 13.4278 8.73333 13.3166 8.76666L11.7833 9.26666L10.8833 12.2833C10.8166 12.5055 10.6944 12.6805 10.5166 12.8083C10.3389 12.9361 10.1389 13 9.91665 13H7.99998C7.7222 13 7.48609 12.9028 7.29165 12.7083C7.0972 12.5139 6.99998 12.2778 6.99998 12V11.6667H5.66665V12C5.66665 12.2778 5.56942 12.5139 5.37498 12.7083C5.18053 12.9028 4.94442 13 4.66665 13H2.83331ZM2.74998 12H4.66665V10.6667H7.99998V12H9.91665L10.9666 8.49999L12.6666 7.91666V4.99999H11.8L9.66665 2.86666C9.67776 2.67777 9.70831 2.44722 9.75831 2.17499C9.80831 1.90277 9.87776 1.59999 9.96665 1.26666C9.48887 1.38888 9.06665 1.57222 8.69998 1.81666C8.33331 2.06111 8.06665 2.34444 7.89998 2.66666H3.99998C3.26665 2.66666 2.63887 2.92777 2.11665 3.44999C1.59442 3.97222 1.33331 4.59999 1.33331 5.33333C1.33331 5.79999 1.45554 6.61388 1.69998 7.77499C1.94442 8.93611 2.29442 10.3444 2.74998 12Z" fill="#E19500"/>
</svg>
